<svg width="139" height="26" viewBox="0 0 139 26" fill="none" xmlns="http://www.w3.org/2000/svg">
<path d="M128.5 6C134.31 6 139 10.4755 139 16C139 16.6294 138.93 17.2238 138.825 17.8182H123.565C124.335 19.8112 126.225 21.2448 128.5 21.2448C130.18 21.2448 131.685 20.4406 132.63 19.2168H138.44C137.04 23.1678 133.12 26 128.5 26C122.69 26 118 21.5245 118 16C118 10.4755 122.69 6 128.5 6ZM123.565 14.1818H133.435C132.665 12.1888 130.74 10.7552 128.5 10.7552C126.225 10.7552 124.335 12.1888 123.565 14.1818Z" fill="white"/>
<path d="M106 6C112.087 6 117 10.4755 117 16C117 16.6294 116.927 17.2238 116.817 17.8182H100.83C101.637 19.8112 103.617 21.2448 106 21.2448C107.76 21.2448 109.337 20.4406 110.327 19.2168H116.413C114.947 23.1678 110.84 26 106 26C99.9133 26 95 21.5245 95 16C95 10.4755 99.9133 6 106 6ZM100.83 14.1818H111.17C110.363 12.1888 108.347 10.7552 106 10.7552C103.617 10.7552 101.637 12.1888 100.83 14.1818Z" fill="white"/>
<path d="M87.697 0H93V25.4348H88.0505V23.1739C86.7778 24.9049 84.7626 26 82.5 26C76.702 26 72 21.4783 72 15.8967C72 10.3152 76.702 5.79348 82.4647 5.79348C84.4798 5.79348 86.2828 6.53533 87.697 7.73641V0ZM77.303 15.8967C77.303 18.8288 79.6717 21.1957 82.6061 21.1957C85.5404 21.1957 87.9091 18.8288 87.9091 15.8967C87.9091 12.9647 85.5404 10.5978 82.6061 10.5978C79.6717 10.5978 77.303 12.9647 77.303 15.8967Z" fill="white"/>
<path d="M60 16.2878C60 10.6043 64.18 6 70.2667 6H71V10.8921C67.9567 10.8921 65.5 13.3022 65.5 16.2878V26H60V16.2878Z" fill="white"/>
<path d="M47 6C53.0867 6 58 10.4755 58 16C58 16.6294 57.9267 17.2238 57.8167 17.8182H41.83C42.6367 19.8112 44.6167 21.2448 47 21.2448C48.76 21.2448 50.3367 20.4406 51.3267 19.2168H57.4133C55.9467 23.1678 51.84 26 47 26C40.9133 26 36 21.5245 36 16C36 10.4755 40.9133 6 47 6ZM41.83 14.1818H52.17C51.3633 12.1888 49.3467 10.7552 47 10.7552C44.6167 10.7552 42.6367 12.1888 41.83 14.1818Z" fill="white"/>
<path d="M28.9085 6C27.2386 6 25.7376 6.89355 24.9899 8.33346L23.0439 12.077L21.7484 9.58486C21.0339 8.20992 19.6003 7.35683 18.0055 7.35683H18.0011C16.4052 7.3579 14.9705 8.21524 14.2582 9.59231L12.9726 12.0781L11.0145 8.32707C10.2657 6.89142 8.76586 6 7.10038 6H0L9.24077 23.7709C9.95533 25.1459 11.3889 25.9989 12.9837 25.9989C12.9848 25.9989 12.987 25.9989 12.9881 25.9989C14.584 25.9979 16.0175 25.1416 16.731 23.7635L18.011 21.2894L19.301 23.772C20.0156 25.1469 21.4491 26.0011 23.0439 26H23.0461C24.642 26 26.0756 25.1437 26.7891 23.7677L36 6H28.9074H28.9085ZM26.6344 9.12796C27.0685 8.29299 27.9399 7.77326 28.9085 7.77326H33.0258L26.9161 19.5556L24.0711 14.0579L26.6333 9.1269L26.6344 9.12796ZM15.9049 10.3836C16.3102 9.59977 17.0955 9.13116 18.0033 9.13009H18.0055C18.9134 9.13009 19.6975 9.59764 20.1039 10.3794L20.8649 11.8427L18.0088 17.3318L18.0055 17.3254L16.8514 19.5556L14.0031 14.0579L15.9038 10.3836H15.9049ZM12.9859 24.2257C12.9859 24.2257 12.9848 24.2257 12.9837 24.2257C12.0769 24.2257 11.2917 23.7581 10.8853 22.9764L2.97865 7.77326H7.10038C8.06676 7.77326 8.93815 8.29086 9.3733 9.1237L11.9566 14.0728L15.8254 21.5408L15.0843 22.9732C14.679 23.7571 13.8937 24.2257 12.9859 24.2267V24.2257ZM23.0439 24.2278C22.1361 24.2278 21.3519 23.7603 20.9455 22.9785L19.0393 19.3106L21.8942 13.8226L25.8889 21.5408L25.1446 22.9764C24.7381 23.7603 23.954 24.2278 23.0461 24.2278H23.0439Z" fill="white"/>
</svg>
