<svg width="44" height="24" viewBox="0 0 44 24" fill="none" xmlns="http://www.w3.org/2000/svg">
<path d="M35.0905 0C33.0867 0 31.2856 1.07226 30.3883 2.80015L28.0531 7.2924L26.4985 4.30183C25.641 2.6519 23.9208 1.6282 22.007 1.6282H22.0017C20.0866 1.62948 18.365 2.65829 17.5102 4.31077L15.9676 7.29368L13.6178 2.79248C12.7192 1.06971 10.9194 0 8.92085 0H0.400391L11.4893 21.3251C12.3468 22.975 14.067 23.9987 15.9808 23.9987C15.9821 23.9987 15.9848 23.9987 15.9861 23.9987C17.9012 23.9974 19.6214 22.9699 20.4776 21.3161L22.0136 18.3473L23.5616 21.3264C24.4191 22.9763 26.1394 24.0013 28.0531 24H28.0558C29.9708 24 31.6911 22.9725 32.5473 21.3213L43.6004 0H35.0892H35.0905ZM32.3617 3.75355C32.8826 2.75158 33.9282 2.12791 35.0905 2.12791H40.0313L32.6997 16.2667L29.2857 9.66952L32.3604 3.75228L32.3617 3.75355ZM19.4863 5.26034C19.9727 4.31972 20.915 3.75739 22.0044 3.75611H22.007C23.0964 3.75611 24.0374 4.31716 24.5251 5.25523L25.4383 7.01124L22.011 13.5982L22.007 13.5905L20.6221 16.2667L17.2041 9.66952L19.4849 5.26034H19.4863ZM15.9835 21.8708C15.9835 21.8708 15.9821 21.8708 15.9808 21.8708C14.8927 21.8708 13.9504 21.3098 13.4627 20.3717L3.97477 2.12791H8.92085C10.0805 2.12791 11.1262 2.74903 11.6483 3.74844L14.7483 9.68742L19.3908 18.6489L18.5016 20.3679C18.0152 21.3085 17.0729 21.8708 15.9835 21.8721V21.8708ZM28.0531 21.8734C26.9637 21.8734 26.0227 21.3123 25.535 20.3742L23.2475 15.9727L26.6735 9.38708L31.4671 18.6489L30.5739 20.3717C30.0861 21.3123 29.1452 21.8734 28.0558 21.8734H28.0531Z" fill="#F7F4EC"/>
</svg>
